<?xml version="1.0" standalone="no"?>
<!DOCTYPE svg PUBLIC "-//W3C//DTD SVG 20010904//EN"
 "http://www.w3.org/TR/2001/REC-SVG-20010904/DTD/svg10.dtd">
<svg version="1.0" xmlns="http://www.w3.org/2000/svg"
 width="1024.000000pt" height="1024.000000pt" viewBox="0 0 1024.000000 1024.000000"
 preserveAspectRatio="xMidYMid meet">
<metadata>
Created by potrace 1.14, written by Peter Selinger 2001-2017
</metadata>
<g transform="translate(0.000000,1024.000000) scale(0.100000,-0.100000)"
fill="#000000" stroke="none">
<path d="M2596 9280 c-374 -47 -758 -252 -1016 -542 -178 -200 -296 -408 -364
-645 -47 -165 -51 -199 -51 -423 0 -189 3 -228 23 -319 73 -327 196 -551 396
-723 43 -37 82 -68 87 -68 4 0 34 41 66 90 112 175 347 499 373 515 24 15 5
34 -62 60 -147 56 -169 86 -105 142 61 54 349 190 512 243 39 12 78 30 88 39
16 16 13 20 -55 77 -40 33 -103 82 -140 108 -122 86 -131 125 -39 164 102 44
428 99 649 109 l133 6 72 51 c157 113 370 242 524 320 l73 36 -20 50 c-143
363 -429 621 -765 689 -118 24 -283 33 -379 21z"/>
<path d="M7385 9279 c-394 -36 -723 -299 -885 -709 l-19 -49 122 -64 c138 -72
329 -189 459 -282 l87 -62 133 -6 c225 -11 569 -72 663 -117 83 -40 71 -64
-87 -184 -62 -47 -128 -99 -146 -114 -30 -27 -31 -30 -15 -44 10 -8 54 -27 98
-43 113 -40 317 -129 403 -177 179 -98 178 -137 -5 -205 -68 -26 -87 -43 -63
-58 26 -16 254 -331 359 -495 80 -125 70 -120 138 -67 160 123 285 302 361
518 109 308 124 665 42 954 -163 569 -631 1027 -1198 1170 -80 20 -306 49
-347 43 -5 0 -50 -4 -100 -9z"/>
<path d="M3240 6024 c-278 -59 -560 -238 -903 -573 -328 -320 -645 -753 -796
-1089 -93 -207 -134 -374 -134 -547 0 -133 15 -210 64 -311 106 -224 361 -389
694 -449 291 -53 683 -18 1014 90 341 112 636 312 783 531 207 311 298 776
243 1246 -47 401 -176 713 -379 913 -172 170 -373 235 -586 189z m15 -713
c441 -91 755 -449 755 -859 0 -301 -225 -632 -538 -791 -76 -39 -217 -79 -320
-92 -303 -38 -629 106 -853 379 -169 205 -237 395 -211 592 40 297 222 549
497 687 69 35 204 80 279 92 96 16 295 12 391 -8z"/>
<path d="M2985 5145 c-343 -74 -582 -383 -562 -724 10 -180 77 -330 203 -455
110 -110 234 -175 388 -203 152 -27 305 -4 456 70 69 33 103 59 176 132 78 77
98 104 137 185 98 201 100 409 7 606 -139 291 -486 459 -805 389z m500 -165
c140 -68 134 -290 -9 -345 -69 -26 -155 -17 -203 21 -57 46 -75 87 -71 165 3
54 9 73 32 104 55 71 167 96 251 55z"/>
<path d="M6720 6020 c-433 -117 -722 -714 -697 -1440 23 -662 256 -1067 762
-1320 461 -231 1069 -296 1480 -158 295 99 485 281 551 528 23 87 23 277 0
384 -88 407 -405 916 -861 1385 -470 483 -916 707 -1235 621z m750 -725 c385
-106 657 -419 685 -788 27 -348 -310 -775 -715 -905 -482 -155 -1071 188
-1191 693 -18 75 -20 108 -15 195 7 130 25 199 81 317 130 268 387 454 714
514 25 4 114 6 196 4 124 -3 167 -8 245 -30z"/>
<path d="M6945 5144 c-149 -33 -313 -133 -406 -248 -103 -128 -153 -269 -153
-436 -1 -129 13 -188 71 -310 39 -82 58 -107 137 -185 73 -73 108 -99 176
-132 123 -60 194 -77 330 -77 90 0 133 5 195 22 431 123 645 581 455 977 -89
186 -257 326 -455 381 -85 23 -263 27 -350 8z m-12 -158 c69 -30 108 -95 108
-183 0 -110 -78 -183 -198 -183 -90 0 -150 40 -178 119 -39 111 6 212 110 249
43 15 120 14 158 -2z"/>
<path d="M4910 3833 c-163 -10 -387 -52 -475 -89 -64 -26 -121 -71 -135 -104
-20 -48 -6 -133 35 -217 84 -170 291 -316 546 -385 70 -19 109 -23 239 -23
189 0 284 21 436 95 230 112 376 284 391 460 6 79 -8 102 -94 148 -171 91
-561 138 -943 115z"/>
</g>
</svg>
